# xmcd
#
# Track frame offsets:
#  150
#  17058
#  38894
#  56061
#  77565
#  99915
#  115210
#  133211
#  155305
#  176147
#  195276
#  217927
#  234447
#  250622
#  272066
#  294508
#
# Disc length: 4088 seconds
#
# Revision: 1
# Processed by: cddbd v1.5.1PL0 Copyright (c) Steve Scherf et al.
# Submitted via: Collectorz.com Music Collector 6.9
#
DISCID=d30ff610
DTITLE=Various Artist - Secular Steel
DYEAR=2004
DGENRE=Avant-Garde - Experimental
TTITLE0=Nels Cline - Eagle Rockers
TTITLE1=Lucky Oceans - Star's Fell on A'ls Banana
TTITLE2=Henry Kaiser - Ahoy Sonny!
TTITLE3=Stephen Ulrich - Postcard From X
TTITLE4=BJ Cole - Leslie the Alien
TTITLE5=Andy Marshall - East by Southwest
TTITLE6=Mike Cooper - Slow Lights Extract
TTITLE7=Susan Alcorn - Twin Beams
TTITLE8=Roger Kleier - Orion on the Horizon
TTITLE9=David Toop - Mallophaga Squared
TTITLE10=Elliot Sharp - Riding the Pherobot Storm
TTITLE11=Eugene Chadbourne - Lord Don't Fix No Highways
TTITLE12=Joe Goldmark - The Coffee Grind
TTITLE13=Bob Hoffnar - I Remember
TTITLE14=Bruce Kaphan - Waveland
TTITLE15=Mark Dogley - Steel Guitar Moan
EXTD=
EXTT0=
EXTT1=
EXTT2=
EXTT3=
EXTT4=
EXTT5=
EXTT6=
EXTT7=
EXTT8=
EXTT9=
EXTT10=
EXTT11=
EXTT12=
EXTT13=
EXTT14=
EXTT15=
PLAYORDER=
